<?xml version="1.0" standalone="no"?>
<!DOCTYPE svg PUBLIC "-//W3C//DTD SVG 20010904//EN"
 "http://www.w3.org/TR/2001/REC-SVG-20010904/DTD/svg10.dtd">
<svg version="1.0" xmlns="http://www.w3.org/2000/svg"
 width="102.000000pt" height="102.000000pt" viewBox="0 0 102.000000 102.000000"
 preserveAspectRatio="xMidYMid meet">
<metadata>
Created by potrace 1.14, written by Peter Selinger 2001-2017
</metadata>
<g transform="translate(0.000000,102.000000) scale(0.100000,-0.100000)"
fill="#000000" stroke="none">
<path d="M157 644 c-4 -4 -7 -16 -7 -26 0 -11 -7 -18 -20 -18 -17 0 -20 -7
-20 -50 0 -43 3 -50 20 -50 13 0 20 -7 20 -20 0 -18 7 -20 70 -20 l70 0 0 -45
0 -45 -65 0 c-63 0 -65 1 -65 25 0 20 -5 25 -25 25 -20 0 -25 -5 -25 -25 0
-18 5 -25 19 -25 13 0 21 -8 23 -22 3 -21 9 -23 76 -26 71 -3 72 -3 72 23 0
18 5 25 20 25 19 0 20 7 20 115 0 107 -1 115 -19 115 -13 0 -21 8 -23 23 -3
20 -9 22 -68 25 -36 2 -69 0 -73 -4z m133 -94 l0 -40 -65 0 -65 0 0 40 0 40
65 0 65 0 0 -40z"/>
<path d="M397 643 c-4 -3 -7 -46 -7 -95 0 -87 0 -88 25 -88 20 0 25 -5 25 -25
0 -24 2 -25 70 -25 68 0 70 1 70 25 0 20 5 25 25 25 l26 0 -3 93 c-3 91 -3 92
-28 92 -25 0 -25 -1 -28 -93 l-3 -93 -62 3 -62 3 -3 93 c-2 81 -5 92 -21 92
-10 0 -21 -3 -24 -7z"/>
<path d="M730 625 c0 -20 -5 -25 -25 -25 -20 0 -25 -5 -25 -25 0 -20 5 -25 25
-25 20 0 25 -5 25 -25 0 -24 2 -25 65 -25 58 0 65 -2 65 -20 0 -19 -7 -20 -90
-20 -89 0 -90 0 -90 -25 0 -25 0 -25 95 -25 95 0 95 0 95 25 0 18 5 25 20 25
15 0 20 7 20 25 0 18 -5 25 -19 25 -13 0 -21 8 -23 23 -3 20 -9 22 -70 25 -52
2 -68 6 -68 17 0 12 18 15 90 15 l90 0 0 30 0 30 -90 0 c-89 0 -90 0 -90 -25z"/>
</g>
</svg>
