<svg width="53" height="52" viewBox="0 0 53 52" fill="none" xmlns="http://www.w3.org/2000/svg">
<rect x="1.5" y="3.09756" width="44.8049" height="44.8049" rx="13.5" fill="white" stroke="#55799A" stroke-width="3"/>
<path d="M24.28 40.32C22.4133 40.32 20.7733 39.96 19.36 39.24C17.9467 38.4933 16.84 37.4533 16.04 36.12C15.2667 34.7867 14.88 33.2533 14.88 31.52V20.48C14.88 18.7467 15.2667 17.2133 16.04 15.88C16.84 14.5467 17.9467 13.52 19.36 12.8C20.7733 12.0533 22.4133 11.68 24.28 11.68C26.12 11.68 27.7467 12.04 29.16 12.76C30.6 13.48 31.7067 14.4933 32.48 15.8C33.2533 17.08 33.64 18.5333 33.64 20.16V20.68C33.64 20.9467 33.5067 21.08 33.24 21.08H31.2C30.9333 21.08 30.8 20.9467 30.8 20.68V20.2C30.8 18.4133 30.2 16.96 29 15.84C27.8267 14.72 26.2533 14.16 24.28 14.16C22.3067 14.16 20.72 14.7333 19.52 15.88C18.32 17.0267 17.72 18.5333 17.72 20.4V31.6C17.72 33.4667 18.3333 34.9733 19.56 36.12C20.7867 37.2667 22.4 37.84 24.4 37.84C26.3467 37.84 27.8933 37.3067 29.04 36.24C30.2133 35.1733 30.8 33.7467 30.8 31.96V28.32C30.8 28.2133 30.7467 28.16 30.64 28.16H24.76C24.4933 28.16 24.36 28.0267 24.36 27.76V26.08C24.36 25.8133 24.4933 25.68 24.76 25.68H33.24C33.5067 25.68 33.64 25.8133 33.64 26.08V31.24C33.64 34.0933 32.7867 36.32 31.08 37.92C29.4 39.52 27.1333 40.32 24.28 40.32Z" fill="#55799A"/>
<rect x="33" y="21" width="20" height="31" fill="white"/>
<rect x="31" y="19" width="16.7317" height="2.39024" rx="1" fill="#55799A"/>
</svg>
